G04 ===== Begin FILE IDENTIFICATION =====*
G04 File Format:  Gerber RS274X*
G04 ===== End FILE IDENTIFICATION =====*
%FSLAX55Y55*%
%MOMM*%
%SFA1.0000B1.0000*%
%OFA0.0B0.0*%
%ADD14C,0.050000*%
%ADD15R,1.000000X2.000000*%
%ADD16R,2.500000X1.000000*%
%ADD17R,2.000000X1.000000*%
%ADD18R,3.840000X1.080000*%
%ADD19R,0.900000X1.200000*%
%ADD20R,0.800000X1.300000*%
%ADD21R,0.990606X0.609603*%
%ADD22R,0.990606X0.889003*%
%ADD23R,0.295765X0.591531*%
%ADD24R,1.000000X2.500000*%
%ADD25R,0.277332X0.603086*%
%ADD26R,4.400000X2.900000*%
%ADD27R,11.400000X8.800000*%
%ADD28R,1.700000X2.800000*%
%ADD29R,2.817000X3.700000*%
%ADD30R,0.700000X0.600000*%
%ADD31R,0.400000X0.200000*%
%ADD32C,0.350000*%
%ADD33R,1.000000X3.000000*%
%ADD34R,5.000000X1.000000*%
%ADD35R,0.600000X0.700000*%
%ADD36R,1.000000X9.500000*%
%ADD37R,2.817000X12.000000*%
%ADD38R,2.817000X3.000000*%
%ADD39R,2.400000X2.817000*%
%ADD40R,0.200000X0.400000*%
%ADD41R,4.000000X2.817000*%
%ADD42R,2.500000X2.817000*%
%ADD43R,2.000000X2.817000*%
%ADD44R,1.000000X2.817000*%
%ADD45R,2.817000X1.000000*%
%ADD46C,1.000000*%
%ADD47R,9.000000X1.000000*%
%ADD48R,3.230000X2.817000*%
%ADD49R,2.817000X15.000000*%
%ADD50C,2.000000*%
%LNcond*%
%IPPOS*%
%LPD*%
G75*
G36*
G01X1443889Y-1067777D02*
G01X1380315Y-1307799D01*
G01X1379342Y-1525602D01*
G01X1348934Y-1558038D01*
G01X961737Y-1560065D01*
G01X958854Y-2860005D01*
G01X2255604D01*
G01Y-1685245D01*
G01X1928716D01*
G01X1888172Y-1654837D01*
G01X1756403Y-1520534D01*
G01X1603349Y-1362209D01*
G01X1525808Y-1140432D01*
G01X1437118Y-1072014D01*
G01X1443889Y-1067777D01*
G37*
D14*
G01X1718150Y-342908D02*
G01Y-343150D01*
G01X1710150D01*
G01Y-342908D01*
D15*
X2590000Y220000D03*
D16*
X1684150Y-759150D03*
D17*
X2540000Y270000D03*
D18*
X1617150Y-705150D03*
G36*
G01X1647020Y-1024390D02*
G01X1644389Y-772228D01*
G01X1838915D01*
G01Y-844235D01*
G01X1745070Y-1024231D01*
G01X1647040Y-1024580D01*
G01X1646859Y-1018629D01*
G01X1647020Y-1024390D01*
G37*
G36*
G01X1539100Y-1153937D02*
G01X1572116Y-1103263D01*
G01X1642296Y-1035936D01*
G01X1668562Y-1023443D01*
G01X1669078Y-964128D01*
G01X1647415D01*
G01X1618904Y-1026741D01*
G01X1584679Y-1057163D01*
G01X1539100Y-1066769D01*
G01X1538584Y-1153937D01*
G01X1539100D01*
G37*
D15*
X710000Y220000D03*
D14*
G01X1718150Y-341150D02*
G01X1710150D01*
G01Y-342908D01*
D19*
X445000Y-300000D03*
Y-560000D03*
D20*
X2860000Y-725000D03*
D14*
G01X1709376Y-342908D02*
G01Y-340827D01*
G01X1710376D01*
G01Y-340916D01*
G01X1710343D01*
G01Y-341102D01*
G01X1709343D01*
G01Y-342908D01*
G01X1709376D01*
D21*
X1695897Y-1124303D03*
X1491834Y-995331D03*
D22*
X1490157Y-1110333D03*
D23*
X1433719Y-994072D03*
D14*
G01X1709376Y-342908D02*
G01X1710150D01*
D21*
X1695897Y-994763D03*
D14*
G01X1718384Y-342908D02*
G01X1718150D01*
D24*
X709150Y-165850D03*
D25*
X1758812Y-1123435D03*
D14*
G01X1718150Y-342908D02*
G01Y-341150D01*
G01X1731984Y-341208D02*
G01Y-341150D01*
G01X1718150D01*
D26*
X3260000Y605000D03*
G36*
G01X3110000Y770000D02*
G01X1138528D01*
G01X812066Y650000D01*
G01X725235Y576194D01*
G01X854765Y423806D01*
G01X1026758Y570000D01*
G01X3110000D01*
G01Y770000D01*
G37*
G36*
G01X722862Y563752D02*
G01X656546Y292544D01*
G01X850822Y245039D01*
G01X917138Y516248D01*
G01X722862Y563752D01*
G37*
D27*
X3280000Y-110000D03*
D28*
X2915000Y-670000D03*
G36*
G01X4567873Y-1200555D02*
G01X4478973D01*
G01X3920173Y-1373275D01*
G01Y-1751735D01*
G01X4567873D01*
G01Y-1200555D01*
G37*
G36*
G01X4567873Y-1032915D02*
G01X4478973D01*
G01X3920173Y-860195D01*
G01Y-481736D01*
G01X4567873D01*
G01Y-1032915D01*
G37*
G36*
G01X3823501Y-966731D02*
G01X4496499Y-1053269D01*
G01Y-1180269D01*
G01X3823501Y-1266806D01*
G01Y-966731D01*
G37*
G36*
G01X4572699Y-1078669D02*
G01Y-1154869D01*
G01X4496499Y-1180269D01*
G01Y-1053269D01*
G01X4572699Y-1078669D01*
G37*
G36*
G01X-356423Y-1150926D02*
G01X-1029421Y-1064388D01*
G01Y-937388D01*
G01X-356423Y-850851D01*
G01Y-1150926D01*
G37*
G36*
G01X-1100795Y-917102D02*
G01X-1011895D01*
G01X-453095Y-744382D01*
G01Y-365922D01*
G01X-1100795D01*
G01Y-917102D01*
G37*
G36*
G01X-1105621Y-1038988D02*
G01Y-962788D01*
G01X-1029421Y-937388D01*
G01Y-1064388D01*
G01X-1105621Y-1038988D01*
G37*
G36*
G01X-1100795Y-1084742D02*
G01X-1011895D01*
G01X-453095Y-1257462D01*
G01Y-1635922D01*
G01X-1100795D01*
G01Y-1084742D01*
G37*
G36*
G01X1235384Y-483758D02*
G01Y-202058D01*
G01X953684Y-483758D01*
G01X1235384D01*
G37*
D29*
X1094534Y-668758D03*
G36*
G01X853684Y-1135458D02*
G01Y-853758D01*
G01X571984D01*
G01Y-1135458D01*
G01X853684D01*
G37*
G36*
G01X1235384Y-853758D02*
G01Y-1135458D01*
G01X1435384Y-1024608D01*
G01Y-964608D01*
G01X1235384Y-853758D01*
G37*
G36*
G01X953684Y-853758D02*
G01Y-1135458D01*
G01X1235384D01*
G01Y-853758D01*
G01X953684D01*
G37*
D30*
X1094534Y-1165458D03*
Y-1305458D03*
D31*
Y-1605458D03*
D32*
Y-1595458D03*
D30*
X712834Y-823758D03*
Y-683758D03*
D33*
Y-503758D03*
G36*
G01X762834Y-253758D02*
G01X662834D01*
G01Y-353758D01*
G01X762834D01*
G01Y-253758D01*
G37*
D30*
X712834Y97942D03*
Y-42058D03*
G36*
G01X753684Y218792D02*
G01X853684D01*
G01Y318792D01*
G01X753684D01*
G01Y218792D01*
G37*
D34*
X1103684Y268792D03*
D35*
X1383684D03*
X1523684D03*
D36*
X2594534Y-347058D03*
G36*
G01X1971984Y-982058D02*
G01Y-1263758D01*
G01X2253684D01*
G01Y-982058D01*
G01X1971984D01*
G37*
D30*
X2112834Y-1293758D03*
Y-1433758D03*
D31*
Y-1733758D03*
D32*
Y-1723758D03*
D37*
X3126234Y-1863758D03*
G36*
G01X2735384Y-1263758D02*
G01Y-982058D01*
G01X2453684D01*
G01Y-1263758D01*
G01X2735384D01*
G37*
D30*
X2112834Y-952058D03*
Y-812058D03*
D38*
Y-632058D03*
G36*
G01X1971984Y-482058D02*
G01X2253684D01*
G01X1971984Y-200358D01*
G01Y-482058D01*
G37*
D39*
X1851984Y-341208D03*
G36*
G01X1971984Y-1263758D02*
G01Y-982058D01*
G01X1771984Y-1092908D01*
G01Y-1152908D01*
G01X1971984Y-1263758D01*
G37*
D35*
X492834Y-303758D03*
X632834D03*
D40*
X1720000Y-990000D03*
D32*
X1710000D03*
G36*
G01X2985384Y-982058D02*
G01Y-1263758D01*
G01X3267084D01*
G01Y-982058D01*
G01X2985384D01*
G37*
D14*
G01X3427084Y-1127908D02*
G01X3432084D01*
G01Y-1117908D01*
G01X3427084D01*
G01Y-1127908D01*

G01X3432084Y-1117908D01*
G01X3427084D02*
G01X3432084Y-1127908D01*
D41*
X3632084Y-1122908D03*
D42*
X2860384D03*
D31*
X1462235Y-661619D03*
D32*
Y-651619D03*
D31*
X1640000Y-1890000D03*
D32*
Y-1880000D03*
D31*
X1630000Y-2370000D03*
D32*
Y-2360000D03*
D43*
X2353684Y-1122908D03*
D44*
X903684Y-994608D03*
D45*
X1094534Y-1385458D03*
X2112834Y-1513758D03*
D31*
X3150000Y504000D03*
D46*
Y514000D03*
D47*
X2003684Y268792D03*
D48*
X1396884Y-342908D03*
D44*
X521984Y-994608D03*
G36*
G01X190284Y-853758D02*
G01Y-1135458D01*
G01X471984D01*
G01Y-853758D01*
G01X190284D01*
G37*
D41*
X-169716Y-994608D03*
D49*
X331134Y-1885458D03*
D31*
X3150000Y-4000D03*
D46*
Y6000D03*
D31*
Y250000D03*
D46*
Y260000D03*
D31*
X3404000Y-4000D03*
D46*
Y6000D03*
D31*
Y250000D03*
D46*
Y260000D03*
D31*
Y504000D03*
D46*
Y514000D03*
D40*
X2870000Y-690000D03*
D32*
X2860000D03*
D40*
X2870000Y-760000D03*
D32*
X2860000D03*
D40*
X450000Y-530000D03*
D32*
X440000D03*
D40*
X450000Y-590000D03*
D32*
X440000D03*
D40*
Y-330000D03*
D32*
X430000D03*
D40*
X440000Y-270000D03*
D32*
X430000D03*
D40*
X1680000Y-930000D03*
D32*
X1670000D03*
D40*
X1770000D03*
D32*
X1760000D03*
D40*
X1490599Y-701309D03*
D32*
X1480599D03*
D40*
X1770000Y-700000D03*
D32*
X1760000D03*
D40*
X1640000D03*
D32*
X1630000D03*
D40*
X1770000Y-810000D03*
D32*
X1760000D03*
D40*
X1694150Y-809150D03*
D32*
X1684150D03*
D31*
X1481463Y-1116223D03*
D32*
Y-1106223D03*
D31*
X1440000Y-1180000D03*
D32*
Y-1170000D03*
D31*
X1520000Y-1210000D03*
D32*
Y-1200000D03*
D31*
X1060000Y-1660000D03*
D32*
Y-1650000D03*
D31*
X1120000Y-1660000D03*
D32*
Y-1650000D03*
D31*
X2080000Y-1780000D03*
D32*
Y-1770000D03*
D31*
X2150000Y-1780000D03*
D32*
Y-1770000D03*
D40*
X3750000Y-470000D03*
D32*
X3740000D03*
D40*
X3750000Y-60000D03*
D32*
X3740000D03*
D31*
X1020000Y-1860000D03*
D32*
Y-1850000D03*
D31*
X1030000Y-2200000D03*
D32*
Y-2190000D03*
D31*
Y-2530000D03*
D32*
Y-2520000D03*
D31*
X2200000Y-1860000D03*
D32*
Y-1850000D03*
D31*
Y-2210000D03*
D32*
Y-2200000D03*
D31*
Y-2530000D03*
D32*
Y-2520000D03*
D31*
Y-2800000D03*
D32*
Y-2790000D03*
D31*
X1860000Y-2800000D03*
D32*
Y-2790000D03*
D31*
X1380000Y-2800000D03*
D32*
Y-2790000D03*
D31*
X1030000Y-2800000D03*
D32*
Y-2790000D03*
D31*
X1880000Y-1720000D03*
D32*
Y-1710000D03*
D31*
X1680000Y-1540000D03*
D32*
Y-1530000D03*
D31*
X1340000Y-1610000D03*
D32*
Y-1600000D03*
D31*
X1430000Y-1350000D03*
D32*
Y-1340000D03*
D40*
X3750000Y250000D03*
D32*
X3740000D03*
D40*
X2790000D03*
D32*
X2780000D03*
D40*
X2790000Y-70000D03*
D32*
X2780000D03*
D40*
Y-470000D03*
D32*
X2770000D03*
D40*
X3290000Y-460000D03*
D32*
X3280000D03*
D40*
X3980000Y-600000D03*
D32*
X3970000D03*
D40*
X3980000Y-710000D03*
D32*
X3970000D03*
D40*
X3994867Y-812409D03*
D32*
X3984867D03*
D40*
X4104705Y-869263D03*
D32*
X4094705D03*
D40*
X4200000Y-890000D03*
D32*
X4190000D03*
D40*
X4323145Y-935303D03*
D32*
X4313145D03*
D40*
X4406379Y-968304D03*
D32*
X4396379D03*
D40*
X4530000Y-980000D03*
D32*
X4520000D03*
D40*
X4300000Y-640000D03*
D50*
X4290000D03*
D40*
X4530000Y-1250000D03*
D32*
X4520000D03*
D40*
X4420000Y-1270000D03*
D32*
X4410000D03*
D40*
X4301852Y-1319461D03*
D32*
X4291852D03*
D40*
X4206827Y-1354587D03*
D32*
X4196827D03*
D40*
X4094713Y-1388332D03*
D32*
X4084713D03*
D40*
X3980000Y-1410000D03*
D32*
X3970000D03*
D40*
X3979291Y-1509375D03*
D32*
X3969291D03*
D40*
X3997078Y-1647657D03*
D32*
X3987078D03*
D40*
X4300000Y-1590000D03*
D50*
X4290000D03*
D40*
X-832922Y-527657D03*
D50*
X-822922D03*
D40*
X-832922Y-1477657D03*
D50*
X-822922D03*
D40*
X-530000Y-470000D03*
D32*
X-520000D03*
D40*
X-512213Y-608282D03*
D32*
X-502213D03*
D40*
X-512922Y-707657D03*
D32*
X-502922D03*
D40*
X-627635Y-729325D03*
D32*
X-617635D03*
D40*
X-739749Y-763070D03*
D32*
X-729749D03*
D40*
X-834774Y-798196D03*
D32*
X-824774D03*
D40*
X-1062922Y-1137657D03*
D32*
X-1052922D03*
D40*
X-939301Y-1149354D03*
D32*
X-929301D03*
D40*
X-856067Y-1182354D03*
D32*
X-846068D03*
D40*
X-732922Y-1227657D03*
D32*
X-722922D03*
D40*
X-512922Y-1517657D03*
D32*
X-502922D03*
D40*
X-512922Y-1407657D03*
D32*
X-502922D03*
D40*
X-527789Y-1305248D03*
D32*
X-517789D03*
D40*
X-637628Y-1248394D03*
D32*
X-627628D03*
D40*
X-952922Y-847657D03*
D32*
X-942922D03*
D40*
X-1062922Y-867657D03*
D32*
X-1052922D03*
M02*

