;           Gerber:: Drill Report             
;           =====================             
;    Unit                   : metric
;    Format                 : 5.5, Leading Zeros Suppressed
;    Co-ordinate data Mode  : Absolute Data mode
;+----------------------------------------+
;|  D R I L L   T O O L S   T A B L E     |
;+----------------------------------------+
;|    Drill    |    Tool    |    Drill    |
;|    Tool     |    Size    |    Count    |
;+----------------------------------------+
;|          T01|    0.350000|           79|
;|          T02|    1.000000|            6|
;|          T03|    2.000000|            4|
;+----------------------------------------+

M48

METRIC,LZ,00000.00000
T01C0.350000
T02C1.000000
T03C2.000000
%
M71
G90
T01
X0001094534Y-0001595458
X0002112834Y-0001723758
X000171Y-000099
X0001462235Y-0000651619
X000164Y-000188
X000163Y-000236
X000286Y-000069
Y-000076
X000044Y-000053
Y-000059
X000043Y-000033
Y-000027
X000167Y-000093
X000176
X0001480599Y-0000701309
X000176Y-00007
X000163
X000176Y-000081
X000168415Y-000080915
X0001481463Y-0001106223
X000144Y-000117
X000152Y-00012
X000106Y-000165
X000112
X000208Y-000177
X000215
X000374Y-000047
Y-000006
X000102Y-000185
X000103Y-000219
Y-000252
X00022Y-000185
Y-00022
Y-000252
Y-000279
X000186
X000138
X000103
X000188Y-000171
X000168Y-000153
X000134Y-00016
X000143Y-000134
X000374Y000025
X000278
Y-000007
X000277Y-000047
X000328Y-000046
X000397Y-00006
Y-000071
X0003984867Y-0000812409
X0004094705Y-0000869263
X000419Y-000089
X0004313145Y-0000935303
X0004396379Y-0000968304
X000452Y-000098
Y-000125
X000441Y-000127
X0004291852Y-0001319461
X0004196827Y-0001354587
X0004084713Y-0001388332
X000397Y-000141
X0003969291Y-0001509375
X0003987078Y-0001647657
X-000052Y-000047
X-0000502213Y-0000608282
X-0000502922Y-0000707657
X-0000617635Y-0000729325
X-0000729749Y-000076307
X-0000824774Y-0000798196
X-0001052922Y-0001137657
X-0000929301Y-0001149354
X-0000846068Y-0001182354
X-0000722922Y-0001227657
X-0000502922Y-0001517657
Y-0001407657
X-0000517789Y-0001305248
X-0000627628Y-0001248394
X-0000942922Y-0000847657
X-0001052922Y-0000867657
T02
X000315Y0000514
Y0000006
Y000026
X0003404Y0000006
Y000026
Y0000514
T03
X000429Y-000064
Y-000159
X-0000822922Y-0000527657
Y-0001477657

M30
