G04 ===== Begin FILE IDENTIFICATION =====*
G04 File Format:  Gerber RS274X*
G04 ===== End FILE IDENTIFICATION =====*
%FSLAX54Y54*%
%MOIN*%
%SFA1.0000B1.0000*%
%OFA0.0B0.0*%
%ADD14R,1.000000X0.100000*%
%ADD15R,0.100000X0.900000*%
%ADD16R,0.900000X0.100000*%
%ADD17R,0.100000X0.650000*%
%ADD18R,0.850000X0.100000*%
%ADD19R,0.100000X0.600000*%
%ADD20R,0.600000X0.100000*%
%ADD21R,0.100000X0.350000*%
%ADD22R,0.550000X0.100000*%
%ADD23R,0.100000X0.300000*%
%ADD24R,0.300000X0.100000*%
%ADD25R,0.100000X0.100000*%
%ADD26R,0.110236X1.102362*%
%ADD27R,0.025000X0.012500*%
%ADD28C,0.013780*%
%ADD29R,0.787402X0.110236*%
%ADD30R,0.393701X0.110236*%
%ADD31R,1.141732X0.110236*%
%ADD32R,0.110236X0.590551*%
%ADD33C,0.000025*%
%LNcond*%
%IPPOS*%
%LPD*%
G75*
D14*
X18724Y0D03*
D15*
X14224Y-5000D03*
D16*
X19224Y-9000D03*
D17*
X23224Y-5250D03*
D18*
X19474Y-1500D03*
D19*
X15724Y-5000D03*
D20*
X19224Y-7500D03*
D21*
X21724Y-5250D03*
D22*
X19474Y-3000D03*
D23*
X17224Y-5000D03*
D24*
X19224Y-6000D03*
D25*
X20224Y-5000D03*
D26*
X7834Y945D03*
D27*
X7863Y-4145D03*
D28*
Y-4207D03*
D27*
X8164Y-4154D03*
D28*
Y-4217D03*
D27*
X20252Y-4701D03*
D28*
Y-4763D03*
D27*
X20244Y-5255D03*
D28*
Y-5317D03*
D29*
X13771Y8457D03*
X22275D03*
G36*
G01X28763Y-551D02*
G01Y551D01*
G01X27661D01*
G01Y-551D01*
G01X28763D01*
G37*
D30*
X25693Y0D03*
D27*
X7553Y-4090D03*
D28*
Y-4153D03*
D31*
X2797Y-4259D03*
D27*
X20237Y-4986D03*
D28*
Y-5048D03*
D30*
X30732Y0D03*
G36*
G01X8385Y6457D02*
G01X7283D01*
G02X9834Y9008I2551J0D01*
G01Y7906D01*
G03X8385Y6457I0J-1449D01*
G01X8385Y6457D01*
G37*
G36*
G01X26212Y7906D02*
G01Y9008D01*
G02X28763Y6457I0J-2551D01*
G01X27661D01*
G03X26212Y7906I-1449J0D01*
G01X26212Y7906D01*
G37*
D32*
X28212Y3504D03*
D33*
G01X18338Y8457D02*
G01X18339D01*
G01Y8386D01*

G01Y8376D01*
G01X12030Y-3500D02*
G01X12370D01*
G01Y-3554D01*

G01Y-3760D01*

G01Y-4500D01*
G01X20224D01*
G01X9450Y-3500D02*
G01X8160D01*
G01X20138Y-5750D02*
G01X20139D01*
G01X18339Y8386D02*
G01X15499D01*
G01Y8376D01*
G01X15497D01*
G01Y8373D01*
G01X15496D01*
G01X12374Y-3554D02*
G01X12370D01*
G01X20252Y-4763D02*
G01X20250D01*
G01Y-4500D01*
G01X20224D01*
G01X12030Y-3500D02*
G01Y-5750D01*
G01X20138D01*
G01X12030Y-3500D02*
G01X9450D01*
G01X8070D02*
G01Y-2472D01*
G01X8079D01*
G01X8070Y-3500D02*
G01X7550D01*
G01Y-4153D01*
G01X7553D01*
G01X9447Y-3350D02*
G01X9450D01*
G01X12370Y-3760D02*
G01X20240D01*
G01Y-5048D01*
G01X20237D01*
G01X8160Y-3500D02*
G01X8070D01*
G01X9450Y-3350D02*
G01X9451D01*
G01X9450Y-3500D02*
G01Y-3350D01*
G01X8160Y-3500D02*
G01Y-4217D01*
G01X8164D01*
G01X20138Y-5753D02*
G01Y-5750D01*
G01X-2975Y-12012D02*
G01X-3012Y10974D01*
G01X32762Y10964D01*
G01X32721Y-12027D01*
G01X-2975Y-12012D01*
M02*

