;           Gerber:: Drill Report             
;           =====================             
;    Unit                   : inch
;    Format                 : 6.6;    Co-ordinate data Mode  : Absolute Data mode
;+----------------------------------------+
;|  D R I L L   T O O L S   T A B L E     |
;+----------------------------------------+
;|    Drill    |    Tool    |    Drill    |
;|    Tool     |    Size    |    Count    |
;+----------------------------------------+
;|          T01|    0.013780|           78|
;|          T02|    0.039370|            6|
;|          T03|    0.078740|            4|
;+----------------------------------------+

M48
INCH,000000.000000
T01C0.013780
T02C0.039370
T03C0.078740
%
M72
G90
T01
X000000430919Y-000000628133
X000000831824Y-000000678645
X000000673228Y-000000389764
X000000645669Y-000000740157
X000000641732Y-000000929134
X000001125984Y-000000271654
Y-000000299213
X000000173228Y-000000208661
Y-000000232283
X000000169291Y-000000129921
Y-000000106299
X000000657480Y-000000366142
X000000692913
X000000582913Y-000000276106
X000000692913Y-000000275591
X000000641732
X000000692913Y-000000318898
X000000663051Y-000000318563
X000000582859Y-000000443789
X000000566929Y-000000460630
X000000598425Y-000000472441
X000000417323Y-000000649606
X000000440945
X000000818898Y-000000696850
X000000846457
X000001472441Y-000000185039
Y-000000023622
X000000401575Y-000000728346
X000000405512Y-000000862205
Y-000000992126
X000000866142Y-000000728346
Y-000000866142
Y-000000992126
Y-000001098425
X000000732283
X000000543307
X000000405512
X000000740157Y-000000673228
X000000661417Y-000000602362
X000000527559Y-000000629921
X000000562992Y-000000527559
X000001472441Y000000098425
X000001094488
Y-000000027559
X000001090551Y-000000185039
X000001291339Y-000000181102
X000001562992Y-000000236220
Y-000000279528
X000001568845Y-000000319846
X000001612089Y-000000342230
X000001649606Y-000000350394
X000001698089Y-000000368229
X000001730858Y-000000381222
X000001779528Y-000000385827
Y-000000492126
X000001736220Y-000000500000
X000001689705Y-000000519473
X000001652294Y-000000533302
X000001608155Y-000000546587
X000001562992Y-000000555118
X000001562713Y-000000594242
X000001569716Y-000000648684
X-000000204724Y-000000185039
X-000000197722Y-000000239481
X-000000198001Y-000000278605
X-000000243163Y-000000287136
X-000000287303Y-000000300421
X-000000324714Y-000000314250
X-000000414536Y-000000447897
X-000000365867Y-000000452501
X-000000333097Y-000000465494
X-000000284615Y-000000483330
X-000000198001Y-000000597503
Y-000000554196
X-000000203854Y-000000513877
X-000000247097Y-000000491494
X-000000371229Y-000000333723
X-000000414536Y-000000341597
T02
X000001240157Y000000202362
Y000000002362
Y000000102362
X000001340157Y000000002362
Y000000102362
Y000000202362
T03
X000001688976Y-000000251969
Y-000000625984
X-000000323985Y-000000207739
Y-000000581755

M30
