G04 ===== Begin FILE IDENTIFICATION =====*
G04 File Format:  Gerber RS274X*
G04 ===== End FILE IDENTIFICATION =====*
%FSLAX55Y55*%
%MOIN*%
%SFA1.0000B1.0000*%
%OFA0.0B0.0*%
%ADD14C,0.001969*%
%ADD15R,0.039370X0.078740*%
%ADD16R,0.098425X0.039370*%
%ADD17R,0.078740X0.039370*%
%ADD18R,0.151181X0.042520*%
%ADD19R,0.035433X0.047244*%
%ADD20R,0.031496X0.051181*%
%ADD21R,0.039000X0.024000*%
%ADD22R,0.039000X0.035000*%
%ADD23R,0.011644X0.023289*%
%ADD24R,0.039370X0.098425*%
%ADD25R,0.010919X0.023744*%
%ADD26R,0.173228X0.114173*%
%ADD27R,0.448819X0.346457*%
%ADD28R,0.066929X0.110236*%
%ADD29R,0.110906X0.145669*%
%ADD30R,0.027559X0.023622*%
%ADD31R,0.015748X0.007874*%
%ADD32C,0.013780*%
%ADD33R,0.039370X0.118110*%
%ADD34R,0.196850X0.039370*%
%ADD35R,0.023622X0.027559*%
%ADD36R,0.039370X0.374016*%
%ADD37R,0.110906X0.472441*%
%ADD38R,0.110906X0.118110*%
%ADD39R,0.094488X0.110906*%
%ADD40R,0.007874X0.015748*%
%ADD41R,0.157480X0.110906*%
%ADD42R,0.098425X0.110906*%
%ADD43R,0.078740X0.110906*%
%ADD44R,0.039370X0.110906*%
%ADD45R,0.110906X0.039370*%
%ADD46C,0.039370*%
%ADD47R,0.354331X0.039370*%
%ADD48R,0.127165X0.110906*%
%ADD49R,0.110906X0.590551*%
%ADD50C,0.078740*%
%LNcond*%
%IPPOS*%
%LPD*%
G75*
G36*
G01X56846Y-42038D02*
G01X54343Y-51488D01*
G01X54305Y-60063D01*
G01X53108Y-61340D01*
G01X37864Y-61420D01*
G01X37750Y-112599D01*
G01X88803D01*
G01Y-66348D01*
G01X75934D01*
G01X74337Y-65151D01*
G01X69150Y-59864D01*
G01X63124Y-53630D01*
G01X60071Y-44899D01*
G01X56579Y-42205D01*
G01X56846Y-42038D01*
G37*
D14*
G01X67644Y-13500D02*
G01Y-13510D01*
G01X67329D01*
G01Y-13500D01*
D15*
X101969Y8661D03*
D16*
X66305Y-29888D03*
D17*
X100000Y10630D03*
D18*
X63667Y-27762D03*
G36*
G01X64843Y-40330D02*
G01X64740Y-30403D01*
G01X72398D01*
G01Y-33238D01*
G01X68704Y-40324D01*
G01X64844Y-40338D01*
G01X64837Y-40104D01*
G01X64843Y-40330D01*
G37*
G36*
G01X60594Y-45431D02*
G01X61894Y-43436D01*
G01X64657Y-40785D01*
G01X65691Y-40293D01*
G01X65712Y-37958D01*
G01X64859D01*
G01X63736Y-40423D01*
G01X62389Y-41621D01*
G01X60594Y-41999D01*
G01X60574Y-45431D01*
G01X60594D01*
G37*
D15*
X27953Y8661D03*
D14*
G01X67644Y-13431D02*
G01X67329D01*
G01Y-13500D01*
D19*
X17520Y-11811D03*
Y-22047D03*
D20*
X112598Y-28543D03*
D14*
G01X67298Y-13500D02*
G01Y-13418D01*
G01X67338D01*
G01Y-13422D01*
G01X67336D01*
G01Y-13429D01*
G01X67297D01*
G01Y-13500D01*
G01X67298D01*
D21*
X66768Y-44264D03*
X58734Y-39186D03*
D22*
X58668Y-43714D03*
D23*
X56446Y-39137D03*
D14*
G01X67298Y-13500D02*
G01X67329D01*
D21*
X66768Y-39164D03*
D14*
G01X67653Y-13500D02*
G01X67644D01*
D24*
X27919Y-6530D03*
D25*
X69245Y-44230D03*
D14*
G01X67644Y-13500D02*
G01Y-13431D01*
G01X68188Y-13433D02*
G01Y-13431D01*
G01X67644D01*
D26*
X128346Y23819D03*
G36*
G01X122441Y30315D02*
G01X44824D01*
G01X31971Y25591D01*
G01X28553Y22685D01*
G01X33652Y16685D01*
G01X40424Y22441D01*
G01X122441D01*
G01Y30315D01*
G37*
G36*
G01X28459Y22195D02*
G01X25848Y11517D01*
G01X33497Y9647D01*
G01X36108Y20325D01*
G01X28459Y22195D01*
G37*
D27*
X129134Y-4331D03*
D28*
X114764Y-26378D03*
G36*
G01X179838Y-47266D02*
G01X176338D01*
G01X154338Y-54066D01*
G01Y-68966D01*
G01X179838D01*
G01Y-47266D01*
G37*
G36*
G01X179838Y-40666D02*
G01X176338D01*
G01X154338Y-33866D01*
G01Y-18966D01*
G01X179838D01*
G01Y-40666D01*
G37*
G36*
G01X150532Y-38060D02*
G01X177028Y-41467D01*
G01Y-46467D01*
G01X150532Y-49874D01*
G01Y-38060D01*
G37*
G36*
G01X180028Y-42467D02*
G01Y-45467D01*
G01X177028Y-46467D01*
G01Y-41467D01*
G01X180028Y-42467D01*
G37*
G36*
G01X-14032Y-45312D02*
G01X-40528Y-41905D01*
G01Y-36905D01*
G01X-14032Y-33498D01*
G01Y-45312D01*
G37*
G36*
G01X-43338Y-36106D02*
G01X-39838D01*
G01X-17838Y-29306D01*
G01Y-14406D01*
G01X-43338D01*
G01Y-36106D01*
G37*
G36*
G01X-43528Y-40905D02*
G01Y-37905D01*
G01X-40528Y-36905D01*
G01Y-41905D01*
G01X-43528Y-40905D01*
G37*
G36*
G01X-43338Y-42706D02*
G01X-39838D01*
G01X-17838Y-49506D01*
G01Y-64406D01*
G01X-43338D01*
G01Y-42706D01*
G37*
G36*
G01X48637Y-19046D02*
G01Y-7955D01*
G01X37547Y-19046D01*
G01X48637D01*
G37*
D29*
X43092Y-26329D03*
G36*
G01X33610Y-44703D02*
G01Y-33613D01*
G01X22519D01*
G01Y-44703D01*
G01X33610D01*
G37*
G36*
G01X48637Y-33613D02*
G01Y-44703D01*
G01X56511Y-40339D01*
G01Y-37977D01*
G01X48637Y-33613D01*
G37*
G36*
G01X37547Y-33613D02*
G01Y-44703D01*
G01X48637D01*
G01Y-33613D01*
G01X37547D01*
G37*
D30*
X43092Y-45884D03*
Y-51396D03*
D31*
Y-63207D03*
D32*
Y-62813D03*
D30*
X28064Y-32431D03*
Y-26920D03*
D33*
Y-19833D03*
G36*
G01X30033Y-9990D02*
G01X26096D01*
G01Y-13927D01*
G01X30033D01*
G01Y-9990D01*
G37*
D30*
X28064Y3856D03*
Y-1656D03*
G36*
G01X29673Y8614D02*
G01X33610D01*
G01Y12551D01*
G01X29673D01*
G01Y8614D01*
G37*
D34*
X43452Y10582D03*
D35*
X54476D03*
X59988D03*
D36*
X102147Y-13664D03*
G36*
G01X77637Y-38664D02*
G01Y-49754D01*
G01X88728D01*
G01Y-38664D01*
G01X77637D01*
G37*
D30*
X83182Y-50935D03*
Y-56447D03*
D31*
Y-68258D03*
D32*
Y-67865D03*
D37*
X123080Y-73376D03*
G36*
G01X107692Y-49754D02*
G01Y-38664D01*
G01X96602D01*
G01Y-49754D01*
G01X107692D01*
G37*
D30*
X83182Y-37483D03*
Y-31971D03*
D38*
Y-24884D03*
G36*
G01X77637Y-18979D02*
G01X88728D01*
G01X77637Y-7888D01*
G01Y-18979D01*
G37*
D39*
X72913Y-13433D03*
G36*
G01X77637Y-49754D02*
G01Y-38664D01*
G01X69763Y-43028D01*
G01Y-45390D01*
G01X77637Y-49754D01*
G37*
D35*
X19403Y-11959D03*
X24915D03*
D40*
X67717Y-38976D03*
D32*
X67323D03*
G36*
G01X117535Y-38664D02*
G01Y-49754D01*
G01X128625D01*
G01Y-38664D01*
G01X117535D01*
G37*
D14*
G01X134925Y-44406D02*
G01X135121D01*
G01Y-44012D01*
G01X134925D01*
G01Y-44406D01*

G01X135121Y-44012D01*
G01X134925D02*
G01X135121Y-44406D01*
D41*
X142995Y-44209D03*
D42*
X112614D03*
D31*
X57568Y-26048D03*
X64567Y-74409D03*
D32*
Y-74016D03*
D31*
X64173Y-93307D03*
D32*
Y-92913D03*
D43*
X92665Y-44209D03*
D44*
X35578Y-39158D03*
D45*
X43092Y-54546D03*
X83182Y-59597D03*
D31*
X124016Y19843D03*
D46*
Y20236D03*
D47*
X78885Y10582D03*
D48*
X54995Y-13500D03*
D44*
X20551Y-39158D03*
G36*
G01X7491Y-33613D02*
G01Y-44703D01*
G01X18582D01*
G01Y-33613D01*
G01X7491D01*
G37*
D41*
X-6682Y-39158D03*
D49*
X13037Y-74231D03*
D31*
X124016Y-157D03*
D46*
Y236D03*
D31*
Y9843D03*
D46*
Y10236D03*
D31*
X134016Y-157D03*
D46*
Y236D03*
D31*
Y9843D03*
D46*
Y10236D03*
D31*
Y19843D03*
D46*
Y20236D03*
D40*
X112992Y-27165D03*
D32*
X112598D03*
D40*
X112992Y-29921D03*
D32*
X112598D03*
D40*
X17717Y-20866D03*
D32*
X17323D03*
D40*
X17717Y-23228D03*
D32*
X17323D03*
D40*
Y-12992D03*
D32*
X16929D03*
D40*
X17323Y-10630D03*
D32*
X16929D03*
D40*
X66142Y-36614D03*
D32*
X65748D03*
D40*
X69685D03*
D32*
X69291D03*
D40*
X58685Y-27611D03*
D32*
X58291D03*
D40*
X69685Y-27559D03*
D32*
X69291D03*
D40*
X64567D03*
D32*
X64173D03*
D40*
X69685Y-31890D03*
D32*
X69291D03*
D40*
X66699Y-31856D03*
D32*
X66305D03*
D31*
X58325Y-43946D03*
D32*
Y-43552D03*
D31*
X56693Y-46457D03*
D32*
Y-46063D03*
D31*
X59843Y-47638D03*
D32*
Y-47244D03*
D31*
X41732Y-65354D03*
D32*
Y-64961D03*
D31*
X44094Y-65354D03*
D32*
Y-64961D03*
D31*
X81890Y-70079D03*
D32*
Y-69685D03*
D31*
X84646Y-70079D03*
D32*
Y-69685D03*
D40*
X147638Y-18504D03*
D32*
X147244D03*
D40*
X147638Y-2362D03*
D32*
X147244D03*
D31*
X40157Y-73228D03*
D32*
Y-72835D03*
D31*
X40551Y-86614D03*
D32*
Y-86220D03*
D31*
Y-99606D03*
D32*
Y-99213D03*
D31*
X86614Y-73228D03*
D32*
Y-72835D03*
D31*
Y-87008D03*
D32*
Y-86614D03*
D31*
Y-99606D03*
D32*
Y-99213D03*
D31*
Y-110236D03*
D32*
Y-109843D03*
D31*
X73228Y-110236D03*
D32*
Y-109843D03*
D31*
X54331Y-110236D03*
D32*
Y-109843D03*
D31*
X40551Y-110236D03*
D32*
Y-109843D03*
D31*
X74016Y-67717D03*
D32*
Y-67323D03*
D31*
X66142Y-60630D03*
D32*
Y-60236D03*
D31*
X52756Y-63386D03*
D32*
Y-62992D03*
D31*
X56299Y-53150D03*
D32*
Y-52756D03*
D40*
X147638Y9843D03*
D32*
X147244D03*
D40*
X109843D03*
D32*
X109449D03*
D40*
X109843Y-2756D03*
D32*
X109449D03*
D40*
Y-18504D03*
D32*
X109055D03*
D40*
X129528Y-18110D03*
D32*
X129134D03*
D40*
X156693Y-23622D03*
D32*
X156299D03*
D40*
X156693Y-27953D03*
D32*
X156299D03*
D40*
X157278Y-31985D03*
D32*
X156885D03*
D40*
X161603Y-34223D03*
D32*
X161209D03*
D40*
X165354Y-35039D03*
D32*
X164961D03*
D40*
X170203Y-36823D03*
D32*
X169809D03*
D40*
X173479Y-38122D03*
D32*
X173086D03*
D40*
X178346Y-38583D03*
D32*
X177953D03*
D40*
X169291Y-25197D03*
D50*
X168898D03*
D40*
X178346Y-49213D03*
D32*
X177953D03*
D40*
X174016Y-50000D03*
D32*
X173622D03*
D40*
X169364Y-51947D03*
D32*
X168971D03*
D40*
X165623Y-53330D03*
D32*
X165229D03*
D40*
X161209Y-54659D03*
D32*
X160815D03*
D40*
X156693Y-55512D03*
D32*
X156299D03*
D40*
X156665Y-59424D03*
D32*
X156271D03*
D40*
X157365Y-64868D03*
D32*
X156972D03*
D40*
X169291Y-62598D03*
D50*
X168898D03*
D40*
X-32792Y-20774D03*
D50*
X-32399D03*
D40*
X-32792Y-58175D03*
D50*
X-32399D03*
D40*
X-20866Y-18504D03*
D32*
X-20472D03*
D40*
X-20166Y-23948D03*
D32*
X-19772D03*
D40*
X-20194Y-27861D03*
D32*
X-19800D03*
D40*
X-24710Y-28714D03*
D32*
X-24316D03*
D40*
X-29124Y-30042D03*
D32*
X-28730D03*
D40*
X-32865Y-31425D03*
D32*
X-32471D03*
D40*
X-41847Y-44790D03*
D32*
X-41454D03*
D40*
X-36980Y-45250D03*
D32*
X-36587D03*
D40*
X-33703Y-46549D03*
D32*
X-33310D03*
D40*
X-28855Y-48333D03*
D32*
X-28462D03*
D40*
X-20194Y-59750D03*
D32*
X-19800D03*
D40*
X-20194Y-55420D03*
D32*
X-19800D03*
D40*
X-20779Y-51388D03*
D32*
X-20385D03*
D40*
X-25103Y-49149D03*
D32*
X-24710D03*
D40*
X-37517Y-33372D03*
D32*
X-37123D03*
D40*
X-41847Y-34160D03*
D32*
X-41454D03*
M02*

