;           Gerber:: Drill Report             
;           =====================             
;    Unit                   : inch
;    Format                 : 5.5, Leading Zeros Suppressed
;    Co-ordinate data Mode  : Absolute Data mode
;+----------------------------------------+
;|  D R I L L   T O O L S   T A B L E     |
;+----------------------------------------+
;|    Drill    |    Tool    |    Drill    |
;|    Tool     |    Size    |    Count    |
;+----------------------------------------+
;|          T01|    0.013780|           78|
;|          T02|    0.039370|            6|
;|          T03|    0.078740|            4|
;+----------------------------------------+

M48
INCH,LZ,00000.00000
T01C0.013780
T02C0.039370
T03C0.078740
%
M72
G90
T01
X0000043092Y-0000062813
X0000083182Y-0000067865
X0000067323Y-0000038976
X0000064567Y-0000074016
X0000064173Y-0000092913
X0000112598Y-0000027165
Y-0000029921
X0000017323Y-0000020866
Y-0000023228
X0000016929Y-0000012992
Y-000001063
X0000065748Y-0000036614
X0000069291
X0000058291Y-0000027611
X0000069291Y-0000027559
X0000064173
X0000069291Y-000003189
X0000066305Y-0000031856
X0000058325Y-0000043552
X0000056693Y-0000046063
X0000059843Y-0000047244
X0000041732Y-0000064961
X0000044094
X000008189Y-0000069685
X0000084646
X0000147244Y-0000018504
Y-0000002362
X0000040157Y-0000072835
X0000040551Y-000008622
Y-0000099213
X0000086614Y-0000072835
Y-0000086614
Y-0000099213
Y-0000109843
X0000073228
X0000054331
X0000040551
X0000074016Y-0000067323
X0000066142Y-0000060236
X0000052756Y-0000062992
X0000056299Y-0000052756
X0000147244Y0000009843
X0000109449
Y-0000002756
X0000109055Y-0000018504
X0000129134Y-000001811
X0000156299Y-0000023622
Y-0000027953
X0000156885Y-0000031985
X0000161209Y-0000034223
X0000164961Y-0000035039
X0000169809Y-0000036823
X0000173086Y-0000038122
X0000177953Y-0000038583
Y-0000049213
X0000173622Y-000005
X0000168971Y-0000051947
X0000165229Y-000005333
X0000160815Y-0000054659
X0000156299Y-0000055512
X0000156271Y-0000059424
X0000156972Y-0000064868
X-0000020472Y-0000018504
X-0000019772Y-0000023948
X-00000198Y-0000027861
X-0000024316Y-0000028714
X-000002873Y-0000030042
X-0000032471Y-0000031425
X-0000041454Y-000004479
X-0000036587Y-000004525
X-000003331Y-0000046549
X-0000028462Y-0000048333
X-00000198Y-000005975
Y-000005542
X-0000020385Y-0000051388
X-000002471Y-0000049149
X-0000037123Y-0000033372
X-0000041454Y-000003416
T02
X0000124016Y0000020236
Y0000000236
Y0000010236
X0000134016Y0000000236
Y0000010236
Y0000020236
T03
X0000168898Y-0000025197
Y-0000062598
X-0000032399Y-0000020774
Y-0000058175

M30
