G04 ===== Begin FILE IDENTIFICATION =====*
G04 File Format:  Gerber RS274X*
G04 ===== End FILE IDENTIFICATION =====*
%FSDAX66Y66*%
%MOIN*%
%SFA1.0000B1.0000*%
%OFA0.0B0.0*%
%ADD14C,0.001969*%
%ADD15R,0.039370X0.078740*%
%ADD16R,0.098425X0.039370*%
%ADD17R,0.078740X0.039370*%
%ADD18R,0.151181X0.042520*%
%ADD19R,0.035433X0.047244*%
%ADD20R,0.031496X0.051181*%
%ADD21R,0.039000X0.024000*%
%ADD22R,0.039000X0.035000*%
%ADD23R,0.011644X0.023289*%
%ADD24R,0.039370X0.098425*%
%ADD25R,0.010919X0.023744*%
%ADD26R,0.173228X0.114173*%
%ADD27R,0.448819X0.346457*%
%ADD28R,0.066929X0.110236*%
%ADD29R,0.110906X0.145669*%
%ADD30R,0.027559X0.023622*%
%ADD31R,0.015748X0.007874*%
%ADD32C,0.013780*%
%ADD33R,0.039370X0.118110*%
%ADD34R,0.196850X0.039370*%
%ADD35R,0.023622X0.027559*%
%ADD36R,0.039370X0.374016*%
%ADD37R,0.110906X0.472441*%
%ADD38R,0.110906X0.118110*%
%ADD39R,0.094488X0.110906*%
%ADD40R,0.007874X0.015748*%
%ADD41R,0.157480X0.110906*%
%ADD42R,0.098425X0.110906*%
%ADD43R,0.078740X0.110906*%
%ADD44R,0.039370X0.110906*%
%ADD45R,0.110906X0.039370*%
%ADD46C,0.039370*%
%ADD47R,0.354331X0.039370*%
%ADD48R,0.127165X0.110906*%
%ADD49R,0.110906X0.590551*%
%ADD50C,0.078740*%
%LNcond*%
%IPPOS*%
%LPD*%
G75*
G36*
G01X000000568460Y-000000420385D02*
G01X000000543431Y-000000514881D01*
G01X000000543048Y-000000600631D01*
G01X000000531076Y-000000613401D01*
G01X000000378637Y-000000614199D01*
G01X000000377502Y-000001125986D01*
G01X000000888033D01*
G01Y-000000663482D01*
G01X000000759337D01*
G01X000000743375Y-000000651511D01*
G01X000000691497Y-000000598635D01*
G01X000000631240Y-000000536303D01*
G01X000000600712Y-000000448989D01*
G01X000000565794Y-000000422053D01*
G01X000000568460Y-000000420385D01*
G37*
D14*
G01X000000676437Y-000000135003D02*
G01Y-000000135098D01*
G01X000000673287D01*
G01Y-000000135003D01*
D15*
X000001019685Y000000086614D03*
D16*
X000000663051Y-000000298878D03*
D17*
X000001000000Y000000106299D03*
D18*
X000000636673Y-000000277618D03*
G36*
G01X000000648433Y-000000403303D02*
G01X000000647397Y-000000304027D01*
G01X000000723982D01*
G01Y-000000332376D01*
G01X000000687035Y-000000403240D01*
G01X000000648441Y-000000403378D01*
G01X000000648370Y-000000401035D01*
G01X000000648433Y-000000403303D01*
G37*
G36*
G01X000000605945Y-000000454306D02*
G01X000000618943Y-000000434356D01*
G01X000000646573Y-000000407849D01*
G01X000000656914Y-000000402930D01*
G01X000000657117Y-000000379578D01*
G01X000000648589D01*
G01X000000637364Y-000000404229D01*
G01X000000623889Y-000000416206D01*
G01X000000605945Y-000000419988D01*
G01X000000605742Y-000000454306D01*
G01X000000605945D01*
G37*
D15*
X000000279528Y000000086614D03*
D14*
G01X000000676437Y-000000134311D02*
G01X000000673287D01*
G01Y-000000135003D01*
D19*
X000000175197Y-000000118110D03*
Y-000000220472D03*
D20*
X000001125984Y-000000285433D03*
D14*
G01X000000672983Y-000000135003D02*
G01Y-000000134184D01*
G01X000000673376D01*
G01Y-000000134219D01*
G01X000000673363D01*
G01Y-000000134292D01*
G01X000000672970D01*
G01Y-000000135003D01*
G01X000000672983D01*
D21*
X000000667676Y-000000442639D03*
X000000587336Y-000000391863D03*
D22*
X000000586676Y-000000437139D03*
D23*
X000000564456Y-000000391367D03*
D14*
G01X000000672983Y-000000135003D02*
G01X000000673287D01*
D21*
X000000667676Y-000000391639D03*
D14*
G01X000000676529Y-000000135003D02*
G01X000000676437D01*
D24*
X000000279193Y-000000065295D03*
D25*
X000000692446Y-000000442297D03*
D14*
G01X000000676437Y-000000135003D02*
G01Y-000000134311D01*
G01X000000681883Y-000000134334D02*
G01Y-000000134311D01*
G01X000000676437D01*
D26*
X000001283465Y000000238189D03*
G36*
G01X000001224409Y000000303150D02*
G01X000000448239D01*
G01X000000319711Y000000255906D01*
G01X000000285526Y000000226848D01*
G01X000000336522Y000000166853D01*
G01X000000404235Y000000224409D01*
G01X000001224409D01*
G01Y000000303150D01*
G37*
G36*
G01X000000284591Y000000221950D02*
G01X000000258482Y000000115175D01*
G01X000000334969Y000000096472D01*
G01X000000361078Y000000203247D01*
G01X000000284591Y000000221950D01*
G37*
D27*
X000001291339Y-000000043307D03*
D28*
X000001147638Y-000000263780D03*
G36*
G01X000001798375Y-000000472660D02*
G01X000001763375D01*
G01X000001543375Y-000000540659D01*
G01Y-000000689659D01*
G01X000001798375D01*
G01Y-000000472660D01*
G37*
G36*
G01X000001798375Y-000000406660D02*
G01X000001763375D01*
G01X000001543375Y-000000338660D01*
G01Y-000000189660D01*
G01X000001798375D01*
G01Y-000000406660D01*
G37*
G36*
G01X000001507874Y-000000386614D02*
G01X000001770275Y-000000414673D01*
G01Y-000000464673D01*
G01X000001507874Y-000000497638D01*
G01Y-000000386614D01*
G37*
G36*
G01X000001800275Y-000000424673D02*
G01Y-000000454673D01*
G01X000001770275Y-000000464673D01*
G01Y-000000414673D01*
G01X000001800275Y-000000424673D01*
G37*
G36*
G01X-000000140551Y-000000447244D02*
G01X-000000405284Y-000000419051D01*
G01Y-000000369051D01*
G01X-000000140324Y-000000334981D01*
G01X-000000140551Y-000000447244D01*
G37*
G36*
G01X-000000433384Y-000000361064D02*
G01X-000000398384D01*
G01X-000000178384Y-000000293064D01*
G01Y-000000144064D01*
G01X-000000433384D01*
G01Y-000000361064D01*
G37*
G36*
G01X-000000435284Y-000000409051D02*
G01Y-000000379051D01*
G01X-000000405284Y-000000369051D01*
G01Y-000000419051D01*
G01X-000000435284Y-000000409051D01*
G37*
G36*
G01X-000000433384Y-000000427064D02*
G01X-000000398384D01*
G01X-000000178384Y-000000495064D01*
G01Y-000000644064D01*
G01X-000000433384D01*
G01Y-000000427064D01*
G37*
G36*
G01X000000486372Y-000000190456D02*
G01Y-000000079551D01*
G01X000000375466Y-000000190456D01*
G01X000000486372D01*
G37*
D29*
X000000430919Y-000000263291D03*
G36*
G01X000000336096Y-000000447031D02*
G01Y-000000336125D01*
G01X000000225190D01*
G01Y-000000447031D01*
G01X000000336096D01*
G37*
G36*
G01X000000486372Y-000000336125D02*
G01Y-000000447031D01*
G01X000000565112Y-000000403389D01*
G01Y-000000379767D01*
G01X000000486372Y-000000336125D01*
G37*
G36*
G01X000000375466Y-000000336125D02*
G01Y-000000447031D01*
G01X000000486372D01*
G01Y-000000336125D01*
G01X000000375466D01*
G37*
D30*
X000000430919Y-000000458842D03*
Y-000000513960D03*
D31*
Y-000000632070D03*
D32*
Y-000000628133D03*
D30*
X000000280643Y-000000324314D03*
Y-000000269196D03*
D33*
Y-000000198330D03*
G36*
G01X000000300328Y-000000099905D02*
G01X000000260958D01*
G01Y-000000139275D01*
G01X000000300328D01*
G01Y-000000099905D01*
G37*
D30*
X000000280643Y000000038560D03*
Y-000000016558D03*
G36*
G01X000000296726Y000000086138D02*
G01X000000336096D01*
G01Y000000125509D01*
G01X000000296726D01*
G01Y000000086138D01*
G37*
D34*
X000000434521Y000000105824D03*
D35*
X000000544757D03*
X000000599875D03*
D36*
X000001021470Y-000000136637D03*
G36*
G01X000000776372Y-000000386637D02*
G01Y-000000497543D01*
G01X000000887277D01*
G01Y-000000386637D01*
G01X000000776372D01*
G37*
D30*
X000000831824Y-000000509354D03*
Y-000000564472D03*
D31*
Y-000000682582D03*
D32*
Y-000000678645D03*
D37*
X000001230801Y-000000733763D03*
G36*
G01X000001076923Y-000000497543D02*
G01Y-000000386637D01*
G01X000000966017D01*
G01Y-000000497543D01*
G01X000001076923D01*
G37*
D30*
X000000831824Y-000000374826D03*
Y-000000319708D03*
D38*
Y-000000248842D03*
G36*
G01X000000776372Y-000000189787D02*
G01X000000887277D01*
G01X000000776372Y-000000078881D01*
G01Y-000000189787D01*
G37*
D39*
X000000729127Y-000000134334D03*
G36*
G01X000000776372Y-000000497543D02*
G01Y-000000386637D01*
G01X000000697631Y-000000430279D01*
G01Y-000000453901D01*
G01X000000776372Y-000000497543D01*
G37*
D35*
X000000194029Y-000000119590D03*
X000000249147D03*
D40*
X000000677165Y-000000389764D03*
D32*
X000000673228D03*
G36*
G01X000001175348Y-000000386637D02*
G01Y-000000497543D01*
G01X000001286253D01*
G01Y-000000386637D01*
G01X000001175348D01*
G37*
D14*
G01X000001349246Y-000000444058D02*
G01X000001351214D01*
G01Y-000000440121D01*
G01X000001349246D01*
G01Y-000000444058D01*

G01X000001351214Y-000000440121D01*
G01X000001349246D02*
G01X000001351214Y-000000444058D01*
D41*
X000001429954Y-000000442090D03*
D42*
X000001126135D03*
D31*
X000000575683Y-000000260480D03*
X000000645669Y-000000744094D03*
D32*
Y-000000740157D03*
D31*
X000000641732Y-000000933071D03*
D32*
Y-000000929134D03*
D43*
X000000926647Y-000000442090D03*
D44*
X000000355781Y-000000391578D03*
D45*
X000000430919Y-000000545456D03*
X000000831824Y-000000595968D03*
D31*
X000001240157Y000000198425D03*
D46*
Y000000202362D03*
D47*
X000000788852Y000000105824D03*
D48*
X000000549954Y-000000135003D03*
D44*
X000000205505Y-000000391578D03*
G36*
G01X000000074915Y-000000336125D02*
G01Y-000000447031D01*
G01X000000185820D01*
G01Y-000000336125D01*
G01X000000074915D01*
G37*
D41*
X-000000066817Y-000000391578D03*
D49*
X000000130368Y-000000742306D03*
D31*
X000001240157Y-000000001575D03*
D46*
Y000000002362D03*
D31*
Y000000098425D03*
D46*
Y000000102362D03*
D31*
X000001340157Y-000000001575D03*
D46*
Y000000002362D03*
D31*
Y000000098425D03*
D46*
Y000000102362D03*
D31*
Y000000198425D03*
D46*
Y000000202362D03*
D40*
X000001129921Y-000000271654D03*
D32*
X000001125984D03*
D40*
X000001129921Y-000000299213D03*
D32*
X000001125984D03*
D40*
X000000177165Y-000000208661D03*
D32*
X000000173228D03*
D40*
X000000177165Y-000000232283D03*
D32*
X000000173228D03*
D40*
Y-000000129921D03*
D32*
X000000169291D03*
D40*
X000000173228Y-000000106299D03*
D32*
X000000169291D03*
D40*
X000000661417Y-000000366142D03*
D32*
X000000657480D03*
D40*
X000000696850D03*
D32*
X000000692913D03*
D40*
X000000586850Y-000000276106D03*
D32*
X000000582913D03*
D40*
X000000696850Y-000000275591D03*
D32*
X000000692913D03*
D40*
X000000645669D03*
D32*
X000000641732D03*
D40*
X000000696850Y-000000318898D03*
D32*
X000000692913D03*
D40*
X000000666988Y-000000318563D03*
D32*
X000000663051D03*
D31*
X000000583253Y-000000439458D03*
D32*
Y-000000435521D03*
D31*
X000000566929Y-000000464567D03*
D32*
Y-000000460630D03*
D31*
X000000598425Y-000000476378D03*
D32*
Y-000000472441D03*
D31*
X000000417323Y-000000653543D03*
D32*
Y-000000649606D03*
D31*
X000000440945Y-000000653543D03*
D32*
Y-000000649606D03*
D31*
X000000818898Y-000000700787D03*
D32*
Y-000000696850D03*
D31*
X000000846457Y-000000700787D03*
D32*
Y-000000696850D03*
D40*
X000001476378Y-000000185039D03*
D32*
X000001472441D03*
D40*
X000001476378Y-000000023622D03*
D32*
X000001472441D03*
D31*
X000000401575Y-000000732283D03*
D32*
Y-000000728346D03*
D31*
X000000405512Y-000000866142D03*
D32*
Y-000000862205D03*
D31*
Y-000000996063D03*
D32*
Y-000000992126D03*
D31*
X000000866142Y-000000732283D03*
D32*
Y-000000728346D03*
D31*
Y-000000870079D03*
D32*
Y-000000866142D03*
D31*
Y-000000996063D03*
D32*
Y-000000992126D03*
D31*
Y-000001102362D03*
D32*
Y-000001098425D03*
D31*
X000000732283Y-000001102362D03*
D32*
Y-000001098425D03*
D31*
X000000543307Y-000001102362D03*
D32*
Y-000001098425D03*
D31*
X000000405512Y-000001102362D03*
D32*
Y-000001098425D03*
D31*
X000000740157Y-000000677165D03*
D32*
Y-000000673228D03*
D31*
X000000661417Y-000000606299D03*
D32*
Y-000000602362D03*
D31*
X000000527559Y-000000633858D03*
D32*
Y-000000629921D03*
D31*
X000000562992Y-000000531496D03*
D32*
Y-000000527559D03*
D40*
X000001476378Y000000098425D03*
D32*
X000001472441D03*
D40*
X000001098425D03*
D32*
X000001094488D03*
D40*
X000001098425Y-000000027559D03*
D32*
X000001094488D03*
D40*
Y-000000185039D03*
D32*
X000001090551D03*
D40*
X000001295276Y-000000181102D03*
D32*
X000001291339D03*
D40*
X000001566929Y-000000236220D03*
D32*
X000001562992D03*
D40*
X000001566929Y-000000279528D03*
D32*
X000001562992D03*
D40*
X000001572782Y-000000319846D03*
D32*
X000001568845D03*
D40*
X000001616026Y-000000342230D03*
D32*
X000001612089D03*
D40*
X000001653543Y-000000350394D03*
D32*
X000001649606D03*
D40*
X000001702026Y-000000368229D03*
D32*
X000001698089D03*
D40*
X000001734795Y-000000381222D03*
D32*
X000001730858D03*
D40*
X000001783465Y-000000385827D03*
D32*
X000001779528D03*
D40*
X000001692913Y-000000251969D03*
D50*
X000001688976D03*
D40*
X000001783465Y-000000492126D03*
D32*
X000001779528D03*
D40*
X000001740157Y-000000500000D03*
D32*
X000001736220D03*
D40*
X000001693642Y-000000519473D03*
D32*
X000001689705D03*
D40*
X000001656231Y-000000533302D03*
D32*
X000001652294D03*
D40*
X000001612092Y-000000546587D03*
D32*
X000001608155D03*
D40*
X000001566929Y-000000555118D03*
D32*
X000001562992D03*
D40*
X000001566650Y-000000594242D03*
D32*
X000001562713D03*
D40*
X000001573653Y-000000648684D03*
D32*
X000001569716D03*
D40*
X000001692913Y-000000625984D03*
D50*
X000001688976D03*
D40*
X-000000327922Y-000000207739D03*
D50*
X-000000323985D03*
D40*
X-000000327922Y-000000581755D03*
D50*
X-000000323985D03*
D40*
X-000000208661Y-000000185039D03*
D32*
X-000000204724D03*
D40*
X-000000201659Y-000000239481D03*
D32*
X-000000197722D03*
D40*
X-000000201938Y-000000278605D03*
D32*
X-000000198001D03*
D40*
X-000000247100Y-000000287136D03*
D32*
X-000000243163D03*
D40*
X-000000291240Y-000000300421D03*
D32*
X-000000287303D03*
D40*
X-000000328651Y-000000314250D03*
D32*
X-000000324714D03*
D40*
X-000000418473Y-000000447897D03*
D32*
X-000000414536D03*
D40*
X-000000369804Y-000000452501D03*
D32*
X-000000365867D03*
D40*
X-000000337034Y-000000465494D03*
D32*
X-000000333097D03*
D40*
X-000000288552Y-000000483330D03*
D32*
X-000000284615D03*
D40*
X-000000201938Y-000000597503D03*
D32*
X-000000198001D03*
D40*
X-000000201938Y-000000554196D03*
D32*
X-000000198001D03*
D40*
X-000000207791Y-000000513877D03*
D32*
X-000000203854D03*
D40*
X-000000251034Y-000000491494D03*
D32*
X-000000247097D03*
D40*
X-000000375166Y-000000333723D03*
D32*
X-000000371229D03*
D40*
X-000000418473Y-000000341597D03*
D32*
X-000000414536D03*
M02*

